<svg width="400" height="280" viewBox="0 0 400 280" fill="none" xmlns="http://www.w3.org/2000/svg">
<g clip-path="url(#clip0_86_1497)">
<rect width="400" height="280" fill="white"/>
<rect x="24" y="17" width="20" height="20" rx="2" fill="#03AFF0"/>
<path d="M29.9883 78.2051C28.9857 78.2051 28.1289 78.0091 27.418 77.6172C26.707 77.2161 26.1602 76.6374 25.7773 75.8809C25.4036 75.1243 25.2168 74.2129 25.2168 73.1465V62.9746C25.2168 61.9082 25.4036 60.9967 25.7773 60.2402C26.1602 59.4837 26.707 58.9095 27.418 58.5176C28.1289 58.1165 28.9857 57.916 29.9883 57.916C30.9909 57.916 31.8477 58.1165 32.5586 58.5176C33.2786 58.9095 33.8255 59.4883 34.1992 60.2539C34.5729 61.0104 34.7598 61.9219 34.7598 62.9883V64.5879H31.3281V62.9883C31.3281 62.651 31.278 62.3594 31.1777 62.1133C31.0775 61.8672 30.9225 61.6803 30.7129 61.5527C30.5124 61.416 30.2708 61.3477 29.9883 61.3477C29.7148 61.3477 29.4779 61.4115 29.2773 61.5391C29.0768 61.6667 28.9219 61.8535 28.8125 62.0996C28.7122 62.3457 28.6621 62.6374 28.6621 62.9746V73.1465C28.6621 73.4837 28.7122 73.7754 28.8125 74.0215C28.9219 74.2585 29.0768 74.4408 29.2773 74.5684C29.4779 74.696 29.7148 74.7598 29.9883 74.7598C30.2799 74.7598 30.526 74.696 30.7266 74.5684C30.9271 74.4408 31.0775 74.2585 31.1777 74.0215C31.278 73.7754 31.3281 73.4792 31.3281 73.1328V71.5332H34.7598V73.1328C34.7598 74.1992 34.5729 75.1152 34.1992 75.8809C33.8255 76.6374 33.2786 77.2161 32.5586 77.6172C31.8477 78.0091 30.9909 78.2051 29.9883 78.2051ZM36.6465 58.1211H40.0371V78H36.6465V58.1211ZM38.1504 74.6914H45.4785V78H38.1504V74.6914ZM38.1504 66.4746H44.7949V69.7695H38.1504V66.4746ZM38.1504 58.1211H45.4785V61.4297H38.1504V58.1211ZM48.7461 66.3379H52.3281C52.6198 66.3379 52.8704 66.2878 53.0801 66.1875C53.2988 66.0781 53.4629 65.9277 53.5723 65.7363C53.6816 65.5358 53.7363 65.2988 53.7363 65.0254V62.8105C53.7363 62.5098 53.6816 62.25 53.5723 62.0312C53.4629 61.8125 53.2988 61.6484 53.0801 61.5391C52.8704 61.4206 52.6198 61.3613 52.3281 61.3613H48.7461V58.1074H52.123C53.1986 58.1074 54.1146 58.2852 54.8711 58.6406C55.6367 58.987 56.2201 59.502 56.6211 60.1855C57.0221 60.86 57.2227 61.6712 57.2227 62.6191V64.9434C57.2227 65.9186 57.0221 66.7572 56.6211 67.459C56.2201 68.1517 55.6367 68.6803 54.8711 69.0449C54.1055 69.4095 53.1895 69.5918 52.123 69.5918H48.7461V66.3379ZM47.2285 58.1074H50.5508V78H47.2285V58.1074ZM51.5078 68.9766L54.6113 68.3477L57.7832 78H54.1465L51.5078 68.9766ZM61.8027 59.7891H65.1934V78H61.8027V59.7891ZM58.5215 58.1211H68.4746V61.375H58.5215V58.1211ZM73.2051 78H69.8145V58.1211H73.2051V78ZM75.3652 58.1211H78.7559V78H75.3652V58.1211ZM76.8828 66.6797H83.5273V69.9336H76.8828V66.6797ZM76.8828 58.1211H84.2109V61.375H76.8828V58.1211ZM89.0918 78H85.7012V58.1211H89.0918V78ZM96.0234 78.2051C95.0208 78.2051 94.1641 78.0091 93.4531 77.6172C92.7422 77.2161 92.1953 76.6374 91.8125 75.8809C91.4388 75.1243 91.252 74.2129 91.252 73.1465V62.9746C91.252 61.9082 91.4388 60.9967 91.8125 60.2402C92.1953 59.4837 92.7422 58.9095 93.4531 58.5176C94.1641 58.1165 95.0208 57.916 96.0234 57.916C97.026 57.916 97.8828 58.1165 98.5938 58.5176C99.3138 58.9095 99.8607 59.4883 100.234 60.2539C100.608 61.0104 100.795 61.9219 100.795 62.9883V64.5879H97.3633V62.9883C97.3633 62.651 97.3132 62.3594 97.2129 62.1133C97.1126 61.8672 96.9577 61.6803 96.748 61.5527C96.5475 61.416 96.306 61.3477 96.0234 61.3477C95.75 61.3477 95.513 61.4115 95.3125 61.5391C95.112 61.6667 94.957 61.8535 94.8477 62.0996C94.7474 62.3457 94.6973 62.6374 94.6973 62.9746V73.1465C94.6973 73.4837 94.7474 73.7754 94.8477 74.0215C94.957 74.2585 95.112 74.4408 95.3125 74.5684C95.513 74.696 95.75 74.7598 96.0234 74.7598C96.3151 74.7598 96.5612 74.696 96.7617 74.5684C96.9622 74.4408 97.1126 74.2585 97.2129 74.0215C97.3132 73.7754 97.3633 73.4792 97.3633 73.1328V71.5332H100.795V73.1328C100.795 74.1992 100.608 75.1152 100.234 75.8809C99.8607 76.6374 99.3138 77.2161 98.5938 77.6172C97.8828 78.0091 97.026 78.2051 96.0234 78.2051ZM105.922 58.1211H108.301L113.045 78H109.682L107.111 64.9707L104.541 78H101.178L105.922 58.1211ZM104.404 71.7383H109.818V74.9102H104.404V71.7383ZM115.889 59.7891H119.279V78H115.889V59.7891ZM112.607 58.1211H122.561V61.375H112.607V58.1211ZM124.174 58.1211H127.564V78H124.174V58.1211ZM125.678 74.6914H133.006V78H125.678V74.6914ZM125.678 66.4746H132.322V69.7695H125.678V66.4746ZM125.678 58.1211H133.006V61.4297H125.678V58.1211Z" fill="#303140"/>
<path d="M26.7012 93.0879C26.2441 93.0879 25.8516 93.0098 25.5234 92.8535C25.1992 92.6934 24.9512 92.4648 24.7793 92.168C24.6074 91.8672 24.5215 91.5059 24.5215 91.084V86.3965C24.5215 85.9746 24.6074 85.6133 24.7793 85.3125C24.9512 85.0117 25.1992 84.7832 25.5234 84.627C25.8516 84.4707 26.2441 84.3926 26.7012 84.3926C27.1582 84.3926 27.5488 84.4707 27.873 84.627C28.2012 84.7832 28.4512 85.0117 28.623 85.3125C28.7949 85.6133 28.8809 85.9746 28.8809 86.3965V91.084C28.8809 91.5059 28.7949 91.8672 28.623 92.168C28.4512 92.4648 28.2012 92.6934 27.873 92.8535C27.5488 93.0098 27.1582 93.0879 26.7012 93.0879ZM26.7012 91.6348C26.8496 91.6348 26.9766 91.6055 27.082 91.5469C27.1914 91.4883 27.2734 91.4043 27.3281 91.2949C27.3828 91.1855 27.4102 91.0527 27.4102 90.8965V86.5723C27.4102 86.4199 27.3828 86.2891 27.3281 86.1797C27.2734 86.0703 27.1914 85.9863 27.082 85.9277C26.9766 85.8691 26.8496 85.8398 26.7012 85.8398C26.5527 85.8398 26.4258 85.8691 26.3203 85.9277C26.2148 85.9863 26.1348 86.0703 26.0801 86.1797C26.0254 86.2891 25.998 86.4199 25.998 86.5723V90.8965C25.998 91.0527 26.0254 91.1855 26.0801 91.2949C26.1348 91.4043 26.2148 91.4883 26.3203 91.5469C26.4258 91.6055 26.5527 91.6348 26.7012 91.6348ZM29.8066 84.4805H31.2598V93H29.8066V84.4805ZM30.457 88.1484H33.3047V89.543H30.457V88.1484ZM30.457 84.4805H33.5977V85.875H30.457V84.4805ZM38.2734 84.4805H39.293L41.3262 93H39.8848L38.7832 87.416L37.6816 93H36.2402L38.2734 84.4805ZM37.623 90.3164H39.9434V91.6758H37.623V90.3164ZM42.6387 88.3008H44.1445C44.2617 88.3008 44.3633 88.2734 44.4492 88.2188C44.5352 88.1641 44.6016 88.084 44.6484 87.9785C44.6953 87.873 44.7188 87.748 44.7188 87.6035V86.6016C44.7188 86.4492 44.6953 86.3184 44.6484 86.209C44.6055 86.0996 44.541 86.0176 44.4551 85.9629C44.3691 85.9043 44.2656 85.875 44.1445 85.875H42.6387V84.4805H44.1855C44.6074 84.4805 44.9688 84.5547 45.2695 84.7031C45.5703 84.8516 45.7988 85.0703 45.9551 85.3594C46.1113 85.6445 46.1895 85.9883 46.1895 86.3906V87.8262C46.1895 88.2207 46.1094 88.5586 45.9492 88.8398C45.793 89.1172 45.5645 89.3301 45.2637 89.4785C44.9629 89.623 44.6035 89.6953 44.1855 89.6953H42.6387V88.3008ZM41.959 84.4805H43.4121V93H41.959V84.4805ZM47.7715 88.3008H49.2773C49.3945 88.3008 49.4961 88.2734 49.582 88.2188C49.668 88.1641 49.7344 88.084 49.7812 87.9785C49.8281 87.873 49.8516 87.748 49.8516 87.6035V86.6016C49.8516 86.4492 49.8281 86.3184 49.7812 86.209C49.7383 86.0996 49.6738 86.0176 49.5879 85.9629C49.502 85.9043 49.3984 85.875 49.2773 85.875H47.7715V84.4805H49.3184C49.7402 84.4805 50.1016 84.5547 50.4023 84.7031C50.7031 84.8516 50.9316 85.0703 51.0879 85.3594C51.2441 85.6445 51.3223 85.9883 51.3223 86.3906V87.8262C51.3223 88.2207 51.2422 88.5586 51.082 88.8398C50.9258 89.1172 50.6973 89.3301 50.3965 89.4785C50.0957 89.623 49.7363 89.6953 49.3184 89.6953H47.7715V88.3008ZM47.0918 84.4805H48.5449V93H47.0918V84.4805ZM52.875 88.002H54.4102C54.5352 88.002 54.6426 87.9805 54.7324 87.9375C54.8262 87.8906 54.8965 87.8262 54.9434 87.7441C54.9902 87.6582 55.0137 87.5566 55.0137 87.4395V86.4902C55.0137 86.3613 54.9902 86.25 54.9434 86.1562C54.8965 86.0625 54.8262 85.9922 54.7324 85.9453C54.6426 85.8945 54.5352 85.8691 54.4102 85.8691H52.875V84.4746H54.3223C54.7832 84.4746 55.1758 84.5508 55.5 84.7031C55.8281 84.8516 56.0781 85.0723 56.25 85.3652C56.4219 85.6543 56.5078 86.002 56.5078 86.4082V87.4043C56.5078 87.8223 56.4219 88.1816 56.25 88.4824C56.0781 88.7793 55.8281 89.0059 55.5 89.1621C55.1719 89.3184 54.7793 89.3965 54.3223 89.3965H52.875V88.002ZM52.2246 84.4746H53.6484V93H52.2246V84.4746ZM54.0586 89.1328L55.3887 88.8633L56.748 93H55.1895L54.0586 89.1328ZM57.6504 84.4805H59.1035V93H57.6504V84.4805ZM58.2949 91.582H61.4355V93H58.2949V91.582ZM58.2949 88.0605H61.1426V89.4727H58.2949V88.0605ZM58.2949 84.4805H61.4355V85.8984H58.2949V84.4805ZM64.2305 93.0879C63.8008 93.0879 63.4336 93.0039 63.1289 92.8359C62.8242 92.6641 62.5898 92.416 62.4258 92.0918C62.2656 91.7676 62.1855 91.377 62.1855 90.9199V86.5605C62.1855 86.1035 62.2656 85.7129 62.4258 85.3887C62.5898 85.0645 62.8242 84.8184 63.1289 84.6504C63.4336 84.4785 63.8008 84.3926 64.2305 84.3926C64.6602 84.3926 65.0273 84.4785 65.332 84.6504C65.6406 84.8184 65.875 85.0664 66.0352 85.3945C66.1953 85.7188 66.2754 86.1094 66.2754 86.5664V87.252H64.8047V86.5664C64.8047 86.4219 64.7832 86.2969 64.7402 86.1914C64.6973 86.0859 64.6309 86.0059 64.541 85.9512C64.4551 85.8926 64.3516 85.8633 64.2305 85.8633C64.1133 85.8633 64.0117 85.8906 63.9258 85.9453C63.8398 86 63.7734 86.0801 63.7266 86.1855C63.6836 86.291 63.6621 86.416 63.6621 86.5605V90.9199C63.6621 91.0645 63.6836 91.1895 63.7266 91.2949C63.7734 91.3965 63.8398 91.4746 63.9258 91.5293C64.0117 91.584 64.1133 91.6113 64.2305 91.6113C64.3555 91.6113 64.4609 91.584 64.5469 91.5293C64.6328 91.4746 64.6973 91.3965 64.7402 91.2949C64.7832 91.1895 64.8047 91.0625 64.8047 90.9141V90.2285H66.2754V90.9141C66.2754 91.3711 66.1953 91.7637 66.0352 92.0918C65.875 92.416 65.6406 92.6641 65.332 92.8359C65.0273 93.0039 64.6602 93.0879 64.2305 93.0879ZM68.4199 93H66.9668V84.4805H68.4199V93ZM70.8516 84.4805H71.8711L73.9043 93H72.4629L71.3613 87.416L70.2598 93H68.8184L70.8516 84.4805ZM70.2012 90.3164H72.5215V91.6758H70.2012V90.3164ZM75.123 85.1953H76.5762V93H75.123V85.1953ZM73.7168 84.4805H77.9824V85.875H73.7168V84.4805ZM80.0098 93H78.5566V84.4805H80.0098V93ZM83.1152 93.0879C82.6582 93.0879 82.2656 93.0098 81.9375 92.8535C81.6133 92.6934 81.3652 92.4648 81.1934 92.168C81.0215 91.8672 80.9355 91.5059 80.9355 91.084V86.3965C80.9355 85.9746 81.0215 85.6133 81.1934 85.3125C81.3652 85.0117 81.6133 84.7832 81.9375 84.627C82.2656 84.4707 82.6582 84.3926 83.1152 84.3926C83.5723 84.3926 83.9629 84.4707 84.2871 84.627C84.6152 84.7832 84.8652 85.0117 85.0371 85.3125C85.209 85.6133 85.2949 85.9746 85.2949 86.3965V91.084C85.2949 91.5059 85.209 91.8672 85.0371 92.168C84.8652 92.4648 84.6152 92.6934 84.2871 92.8535C83.9629 93.0098 83.5723 93.0879 83.1152 93.0879ZM83.1152 91.6348C83.2637 91.6348 83.3906 91.6055 83.4961 91.5469C83.6055 91.4883 83.6875 91.4043 83.7422 91.2949C83.7969 91.1855 83.8242 91.0527 83.8242 90.8965V86.5723C83.8242 86.4199 83.7969 86.2891 83.7422 86.1797C83.6875 86.0703 83.6055 85.9863 83.4961 85.9277C83.3906 85.8691 83.2637 85.8398 83.1152 85.8398C82.9668 85.8398 82.8398 85.8691 82.7344 85.9277C82.6289 85.9863 82.5488 86.0703 82.4941 86.1797C82.4395 86.2891 82.4121 86.4199 82.4121 86.5723V90.8965C82.4121 91.0527 82.4395 91.1855 82.4941 91.2949C82.5488 91.4043 82.6289 91.4883 82.7344 91.5469C82.8398 91.6055 82.9668 91.6348 83.1152 91.6348ZM86.2207 84.4805H87.3633L89.3672 90.1641L89.209 90.3926V84.4805H90.5332V92.9941H89.3789L87.3984 87.6387L87.5508 87.4043V92.9941H86.2207V84.4805Z" fill="#03AFF0"/>
<path d="M25.38 125H26.262V121.622H27.516V120.8H24.12V121.622H25.38V125ZM30.8665 120.8V122.444H29.0065V120.8H28.1185V125H29.0065V123.26H30.8665V125H31.7485V120.8H30.8665ZM32.7067 125H33.5947V120.8H32.7067V125ZM34.2521 124.148C34.5461 124.73 35.2121 125.084 36.0581 125.084C37.1021 125.084 37.7141 124.55 37.7141 123.758C37.7141 123.14 37.3301 122.744 36.5681 122.558L35.8721 122.396C35.4221 122.282 35.2661 122.156 35.2661 121.946C35.2661 121.682 35.5061 121.508 35.9621 121.508C36.4001 121.508 36.7421 121.658 36.9881 121.964L37.6061 121.484C37.3361 121.01 36.7241 120.716 35.9741 120.716C34.9721 120.716 34.3661 121.232 34.3661 121.964C34.3661 122.564 34.7621 122.978 35.5541 123.17L36.2321 123.332C36.6581 123.428 36.8141 123.572 36.8141 123.806C36.8141 124.112 36.5561 124.292 36.0821 124.292C35.5601 124.292 35.1221 124.064 34.8761 123.674L34.2521 124.148ZM39.5221 122.906C39.5041 124.148 40.4221 125.102 41.6881 125.084C42.5461 125.084 43.2301 124.682 43.5721 123.938L42.8161 123.542C42.5941 124.016 42.1921 124.25 41.7061 124.25C40.9621 124.25 40.4461 123.68 40.4461 122.9C40.4461 122.12 40.9621 121.55 41.7061 121.55C42.1921 121.55 42.5881 121.784 42.8101 122.258L43.5721 121.862C43.2301 121.118 42.5461 120.716 41.6881 120.716C40.4161 120.698 39.5041 121.67 39.5221 122.906ZM45.0435 124.202V123.278H47.0475V122.486H45.0435V121.598H47.1915V120.8H44.1615V125H47.2515V124.202H45.0435ZM50.4873 125H51.5493L50.3313 123.47C51.0573 123.35 51.4353 122.912 51.4353 122.168C51.4353 121.28 50.9013 120.8 49.8933 120.8H48.0873V125H48.9693V123.5H49.3473L50.4873 125ZM48.9693 121.604H49.8333C50.3133 121.604 50.5173 121.778 50.5173 122.168C50.5173 122.558 50.3133 122.732 49.8333 122.732H48.9693V121.604ZM53.0655 125H53.9475V121.622H55.2015V120.8H51.8055V121.622H53.0655V125ZM55.8161 125H56.7041V120.8H55.8161V125ZM60.6615 121.598V120.8H57.6615V125H58.5495V123.368H60.5415V122.558H58.5495V121.598H60.6615ZM61.4118 125H62.2998V120.8H61.4118V125ZM63.0592 122.906C63.0412 124.148 63.9592 125.102 65.2252 125.084C66.0832 125.084 66.7672 124.682 67.1092 123.938L66.3532 123.542C66.1312 124.016 65.7292 124.25 65.2432 124.25C64.4992 124.25 63.9832 123.68 63.9832 122.9C63.9832 122.12 64.4992 121.55 65.2432 121.55C65.7292 121.55 66.1252 121.784 66.3472 122.258L67.1092 121.862C66.7672 121.118 66.0832 120.716 65.2252 120.716C63.9532 120.698 63.0412 121.67 63.0592 122.906ZM70.5446 125H71.4746L69.8486 120.8H68.8286L67.2086 125H68.1386L68.4746 124.082H70.2086L70.5446 125ZM68.7446 123.332L69.3446 121.688L69.9386 123.332H68.7446ZM72.3429 125H73.2249V121.622H74.4789V120.8H71.0829V121.622H72.3429V125ZM75.9634 124.202V123.278H77.9674V122.486H75.9634V121.598H78.1114V120.8H75.0814V125H78.1714V124.202H75.9634ZM80.32 125H81.208V120.8H80.32V125ZM81.8654 124.148C82.1594 124.73 82.8254 125.084 83.6714 125.084C84.7154 125.084 85.3274 124.55 85.3274 123.758C85.3274 123.14 84.9434 122.744 84.1814 122.558L83.4854 122.396C83.0354 122.282 82.8794 122.156 82.8794 121.946C82.8794 121.682 83.1194 121.508 83.5754 121.508C84.0134 121.508 84.3554 121.658 84.6014 121.964L85.2194 121.484C84.9494 121.01 84.3374 120.716 83.5874 120.716C82.5854 120.716 81.9794 121.232 81.9794 121.964C81.9794 122.564 82.3754 122.978 83.1674 123.17L83.8454 123.332C84.2714 123.428 84.4274 123.572 84.4274 123.806C84.4274 124.112 84.1694 124.292 83.6954 124.292C83.1734 124.292 82.7354 124.064 82.4894 123.674L81.8654 124.148ZM90.6574 122.198C90.6574 121.286 90.1234 120.8 89.0974 120.8H87.3334V125H88.2214V123.59H89.0974C90.1234 123.59 90.6574 123.11 90.6574 122.198ZM89.7334 122.198C89.7334 122.612 89.5354 122.792 89.0494 122.792H88.2214V121.616H89.0494C89.5354 121.616 89.7334 121.79 89.7334 122.198ZM93.7412 125H94.8032L93.5852 123.47C94.3112 123.35 94.6892 122.912 94.6892 122.168C94.6892 121.28 94.1552 120.8 93.1472 120.8H91.3412V125H92.2232V123.5H92.6012L93.7412 125ZM92.2232 121.604H93.0872C93.5672 121.604 93.7712 121.778 93.7712 122.168C93.7712 122.558 93.5672 122.732 93.0872 122.732H92.2232V121.604ZM95.2623 122.906C95.2443 124.124 96.1983 125.108 97.4643 125.084C98.7303 125.108 99.6843 124.124 99.6663 122.906C99.6843 121.688 98.7303 120.692 97.4643 120.716C96.1983 120.692 95.2443 121.688 95.2623 122.906ZM98.7423 122.906C98.7423 123.692 98.2263 124.25 97.4643 124.25C96.7023 124.25 96.1863 123.692 96.1863 122.906C96.1863 122.12 96.7023 121.55 97.4643 121.55C98.2263 121.55 98.7423 122.12 98.7423 122.906ZM100.357 123.452C100.357 124.484 101.083 125.084 102.145 125.084C103.201 125.084 103.927 124.484 103.927 123.452V120.8H103.039V123.386C103.039 123.944 102.721 124.25 102.145 124.25C101.569 124.25 101.245 123.944 101.245 123.386V120.8H100.357V123.452ZM108.58 122.9C108.58 121.592 107.728 120.8 106.51 120.8H104.818V125H106.51C107.728 125 108.58 124.208 108.58 122.9ZM107.656 122.9C107.656 123.74 107.248 124.178 106.51 124.178H105.706V121.622H106.51C107.248 121.622 107.656 122.06 107.656 122.9ZM110.217 124.178V120.8H109.329V125H112.233V124.178H110.217ZM114.638 120.8L113.654 122.528L112.664 120.8H111.656L113.204 123.344V125H114.098V123.344L115.646 120.8H114.638ZM120.564 122.198C120.564 121.286 120.03 120.8 119.004 120.8H117.24V125H118.128V123.59H119.004C120.03 123.59 120.564 123.11 120.564 122.198ZM119.64 122.198C119.64 122.612 119.442 122.792 118.956 122.792H118.128V121.616H118.956C119.442 121.616 119.64 121.79 119.64 122.198ZM123.647 125H124.709L123.491 123.47C124.217 123.35 124.595 122.912 124.595 122.168C124.595 121.28 124.061 120.8 123.053 120.8H121.247V125H122.129V123.5H122.507L123.647 125ZM122.129 121.604H122.993C123.473 121.604 123.677 121.778 123.677 122.168C123.677 122.558 123.473 122.732 122.993 122.732H122.129V121.604ZM126.26 124.202V123.278H128.264V122.486H126.26V121.598H128.408V120.8H125.378V125H128.468V124.202H126.26ZM128.969 124.148C129.263 124.73 129.929 125.084 130.775 125.084C131.819 125.084 132.431 124.55 132.431 123.758C132.431 123.14 132.047 122.744 131.285 122.558L130.589 122.396C130.139 122.282 129.983 122.156 129.983 121.946C129.983 121.682 130.223 121.508 130.679 121.508C131.117 121.508 131.459 121.658 131.705 121.964L132.323 121.484C132.053 121.01 131.441 120.716 130.691 120.716C129.689 120.716 129.083 121.232 129.083 121.964C129.083 122.564 129.479 122.978 130.271 123.17L130.949 123.332C131.375 123.428 131.531 123.572 131.531 123.806C131.531 124.112 131.273 124.292 130.799 124.292C130.277 124.292 129.839 124.064 129.593 123.674L128.969 124.148ZM133.983 124.202V123.278H135.987V122.486H133.983V121.598H136.131V120.8H133.101V125H136.191V124.202H133.983ZM139.919 120.8V123.572L137.861 120.8H137.027V125H137.903V122.234L139.955 125H140.789V120.8H139.919ZM142.644 125H143.526V121.622H144.78V120.8H141.384V121.622H142.644V125ZM146.264 124.202V123.278H148.268V122.486H146.264V121.598H148.412V120.8H145.382V125H148.472V124.202H146.264ZM153.07 122.9C153.07 121.592 152.218 120.8 151 120.8H149.308V125H151C152.218 125 153.07 124.208 153.07 122.9ZM152.146 122.9C152.146 123.74 151.738 124.178 151 124.178H150.196V121.622H151C151.738 121.622 152.146 122.06 152.146 122.9ZM155.921 125H156.803V121.622H158.057V120.8H154.661V121.622H155.921V125ZM158.233 122.906C158.215 124.124 159.169 125.108 160.435 125.084C161.701 125.108 162.655 124.124 162.637 122.906C162.655 121.688 161.701 120.692 160.435 120.716C159.169 120.692 158.215 121.688 158.233 122.906ZM161.713 122.906C161.713 123.692 161.197 124.25 160.435 124.25C159.673 124.25 159.157 123.692 159.157 122.906C159.157 122.12 159.673 121.55 160.435 121.55C161.197 121.55 161.713 122.12 161.713 122.906Z" fill="#121212"/>
<line x1="24" y1="158.85" x2="264" y2="158.85" stroke="#00597D" stroke-width="0.3"/>
<line x1="24" y1="250.75" x2="88" y2="250.75" stroke="#121212" stroke-width="0.5"/>
<path d="M52.778 258.9C52.778 257.598 51.926 256.8 50.708 256.8H49.1V261H50.708C51.926 261 52.778 260.202 52.778 258.9ZM52.16 258.9C52.16 259.89 51.62 260.454 50.708 260.454H49.688V257.346H50.708C51.62 257.346 52.16 257.91 52.16 258.9ZM55.9905 257.958V258.498C55.8165 258.114 55.3905 257.874 54.8925 257.874C54.0645 257.874 53.4525 258.54 53.4525 259.482C53.4525 260.418 54.0645 261.084 54.8925 261.084C55.3905 261.084 55.8165 260.844 55.9905 260.46V261H56.5545V257.958H55.9905ZM56.0145 259.482C56.0145 259.8 55.9245 260.058 55.7445 260.262C55.5645 260.46 55.3245 260.562 55.0305 260.562C54.7365 260.562 54.4965 260.46 54.3105 260.262C54.1305 260.058 54.0405 259.8 54.0405 259.482C54.0405 259.164 54.1305 258.9 54.3105 258.702C54.4965 258.498 54.7365 258.396 55.0305 258.396C55.6245 258.396 56.0145 258.84 56.0145 259.482ZM57.8223 260.19C57.8223 260.76 58.1403 261.048 58.7703 261.048C58.9683 261.048 59.1543 261.024 59.3283 260.97V260.496C59.1543 260.532 58.9983 260.55 58.8603 260.55C58.5243 260.55 58.3863 260.43 58.3863 260.136V258.444H59.3163V257.958H58.3863V257.058H57.8223V257.958H57.2223V258.444H57.8223V260.19ZM62.7622 259.65C62.7742 259.56 62.7802 259.47 62.7802 259.38C62.7802 258.486 62.1742 257.874 61.3282 257.874C60.4342 257.874 59.7982 258.558 59.7982 259.488C59.7982 260.43 60.4402 261.084 61.3762 261.084C61.9342 261.084 62.4022 260.856 62.6962 260.448L62.3302 260.124C62.0842 260.424 61.7662 260.574 61.3882 260.574C60.8182 260.574 60.4402 260.232 60.3742 259.65H62.7622ZM60.3862 259.218C60.4762 258.696 60.8182 258.39 61.3282 258.39C61.8262 258.39 62.1622 258.69 62.2102 259.218H60.3862Z" fill="#121212"/>
<line x1="152" y1="250.75" x2="216" y2="250.75" stroke="#121212" stroke-width="0.5"/>
<path d="M169.758 260.112C170.016 260.718 170.628 261.084 171.474 261.084C172.476 261.084 173.058 260.58 173.058 259.83C173.058 259.254 172.692 258.882 171.894 258.69L171.216 258.522C170.688 258.402 170.484 258.216 170.484 257.904C170.484 257.496 170.826 257.25 171.402 257.25C171.9 257.25 172.296 257.436 172.506 257.778L172.956 257.484C172.734 257.022 172.158 256.716 171.408 256.716C170.466 256.716 169.884 257.214 169.884 257.91C169.884 258.48 170.274 258.858 171.054 259.044L171.732 259.206C172.236 259.332 172.452 259.536 172.452 259.854C172.452 260.28 172.086 260.55 171.486 260.55C170.904 260.55 170.442 260.292 170.22 259.83L169.758 260.112ZM173.752 256.98C173.752 257.196 173.908 257.358 174.13 257.358C174.352 257.358 174.508 257.196 174.508 256.98C174.508 256.764 174.352 256.602 174.13 256.602C173.908 256.602 173.752 256.764 173.752 256.98ZM173.848 261H174.412V257.958H173.848V261ZM177.776 257.958V258.492C177.602 258.114 177.176 257.874 176.678 257.874C175.85 257.874 175.238 258.522 175.238 259.434C175.238 260.352 175.85 260.994 176.678 260.994C177.182 260.994 177.602 260.766 177.776 260.388V260.652C177.776 261.39 177.404 261.768 176.732 261.768C176.324 261.768 175.94 261.618 175.658 261.372L175.352 261.786C175.664 262.098 176.168 262.284 176.744 262.284C177.758 262.284 178.34 261.702 178.34 260.652V257.958H177.776ZM177.8 259.434C177.8 259.74 177.71 259.986 177.53 260.184C177.35 260.382 177.11 260.478 176.816 260.478C176.222 260.478 175.826 260.052 175.826 259.434C175.826 259.128 175.916 258.882 176.096 258.69C176.282 258.492 176.522 258.396 176.816 258.396C177.11 258.396 177.35 258.492 177.53 258.69C177.71 258.882 177.8 259.128 177.8 259.434ZM182.055 259.044C182.055 258.3 181.653 257.874 180.975 257.874C180.495 257.874 180.111 258.09 179.937 258.456V257.958H179.373V261H179.937V259.206C179.937 258.708 180.303 258.396 180.825 258.396C181.281 258.396 181.491 258.636 181.491 259.182V261H182.055V259.044ZM185.393 257.958V258.498C185.219 258.114 184.793 257.874 184.295 257.874C183.467 257.874 182.855 258.54 182.855 259.482C182.855 260.418 183.467 261.084 184.295 261.084C184.793 261.084 185.219 260.844 185.393 260.46V261H185.957V257.958H185.393ZM185.417 259.482C185.417 259.8 185.327 260.058 185.147 260.262C184.967 260.46 184.727 260.562 184.433 260.562C184.139 260.562 183.899 260.46 183.713 260.262C183.533 260.058 183.443 259.8 183.443 259.482C183.443 259.164 183.533 258.9 183.713 258.702C183.899 258.498 184.139 258.396 184.433 258.396C185.027 258.396 185.417 258.84 185.417 259.482ZM187.225 260.19C187.225 260.76 187.543 261.048 188.173 261.048C188.371 261.048 188.557 261.024 188.731 260.97V260.496C188.557 260.532 188.401 260.55 188.263 260.55C187.927 260.55 187.789 260.43 187.789 260.136V258.444H188.719V257.958H187.789V257.058H187.225V257.958H186.625V258.444H187.225V260.19ZM189.409 259.86C189.409 260.592 189.943 261.084 190.735 261.084C191.137 261.084 191.461 260.976 191.701 260.754C191.941 260.532 192.061 260.232 192.061 259.86V257.958H191.497V259.818C191.497 260.304 191.221 260.562 190.735 260.562C190.249 260.562 189.973 260.304 189.973 259.818V257.958H189.409V259.86ZM194.789 257.952C194.711 257.922 194.621 257.91 194.519 257.91C194.081 257.91 193.745 258.126 193.601 258.504V257.958H193.037V261H193.601V259.458C193.601 258.768 193.925 258.438 194.507 258.438C194.609 258.438 194.705 258.444 194.789 258.462V257.952ZM198.088 259.65C198.1 259.56 198.106 259.47 198.106 259.38C198.106 258.486 197.5 257.874 196.654 257.874C195.76 257.874 195.124 258.558 195.124 259.488C195.124 260.43 195.766 261.084 196.702 261.084C197.26 261.084 197.728 260.856 198.022 260.448L197.656 260.124C197.41 260.424 197.092 260.574 196.714 260.574C196.144 260.574 195.766 260.232 195.7 259.65H198.088ZM195.712 259.218C195.802 258.696 196.144 258.39 196.654 258.39C197.152 258.39 197.488 258.69 197.536 259.218H195.712Z" fill="#121212"/>
<path d="M246.397 235.359L256.397 234.679L266.397 235.359L271.986 243.679L276.397 252.679L271.986 261.679L266.397 270L256.397 270.679L246.397 270L240.809 261.679L236.397 252.679L240.809 243.679L246.397 235.359Z" fill="white"/>
<path d="M241.243 243.93L246.676 235.841L256.397 235.181L266.119 235.841L271.552 243.93L275.84 252.679L271.552 261.429L266.119 269.518L256.397 270.178L246.676 269.518L241.243 261.429L236.954 252.679L241.243 243.93Z" stroke="black" stroke-opacity="0.5"/>
<path d="M284.243 193.93L289.676 185.841L299.397 185.181L309.119 185.841L314.552 193.93L318.84 202.679L314.552 211.429L309.119 219.518L299.397 220.178L289.676 219.518L284.243 211.429L279.954 202.679L284.243 193.93Z" fill="white" stroke="#04AEEC"/>
<path d="M289.397 225.359L299.397 224.679L309.397 225.359L314.986 233.679L319.397 242.679L314.986 251.679L309.397 260L299.397 260.679L289.397 260L283.809 251.679L279.397 242.679L283.809 233.679L289.397 225.359Z" fill="#04AEEC"/>
<path d="M326.038 205.359L336.038 204.679L346.038 205.359L351.627 213.679L356.038 222.679L351.627 231.679L346.038 240L336.038 240.679L326.038 240L320.45 231.679L316.038 222.679L320.45 213.679L326.038 205.359Z" fill="#005FAF"/>
<path d="M326.038 245.359L336.038 244.679L346.038 245.359L351.627 253.679L356.038 262.679L351.627 271.679L346.038 280L336.038 280.679L326.038 280L320.45 271.679L316.038 262.679L320.45 253.679L326.038 245.359Z" fill="#037DC8"/>
<path d="M357.525 233.93L362.958 225.841L372.679 225.181L382.401 225.841L387.834 233.93L392.123 242.679L387.834 251.429L382.401 259.518L372.679 260.178L362.958 259.518L357.525 251.429L353.236 242.679L357.525 233.93Z" fill="white" stroke="#037DC8"/>
</g>
<defs>
<clipPath id="clip0_86_1497">
<rect width="400" height="280" fill="white"/>
</clipPath>
</defs>
</svg>
