<?xml version="1.0" standalone="no"?>
<!DOCTYPE svg PUBLIC "-//W3C//DTD SVG 20010904//EN"
 "http://www.w3.org/TR/2001/REC-SVG-20010904/DTD/svg10.dtd">
<svg version="1.0" xmlns="http://www.w3.org/2000/svg"
 width="640.000000pt" height="423.000000pt" viewBox="0 0 640.000000 423.000000"
 preserveAspectRatio="xMidYMid meet">

<g transform="translate(0.000000,423.000000) scale(0.100000,-0.100000)"
fill="#003366" stroke="none">
<path d="M2347 4166 c-63 -17 -95 -42 -132 -101 -27 -43 -30 -57 -30 -129 0
-77 2 -85 39 -146 62 -102 134 -193 276 -349 156 -171 182 -204 334 -430 122
-181 156 -239 156 -266 0 -9 -27 -61 -60 -117 -34 -55 -100 -175 -147 -266
-67 -128 -93 -168 -116 -181 -17 -9 -45 -29 -63 -44 -31 -26 -33 -27 -39 -8
-3 10 -13 22 -21 25 -36 14 -99 -46 -243 -229 -35 -44 -67 -84 -73 -90 -5 -5
12 35 37 90 110 235 121 275 84 298 -41 26 -64 2 -199 -199 -73 -108 -134
-194 -136 -191 -2 2 16 40 41 84 25 45 45 87 45 94 0 8 11 38 25 67 30 64 32
102 7 132 -38 47 -107 -3 -208 -151 -26 -38 -51 -69 -56 -69 -4 0 3 29 16 63
13 35 32 99 41 141 l17 77 133 130 c142 140 169 179 142 206 -20 20 -33 12
-129 -77 -38 -34 -68 -57 -68 -51 0 6 14 41 30 78 17 36 30 72 30 79 0 7 7 28
15 46 51 114 216 522 229 567 19 65 21 132 4 149 -19 19 -58 14 -80 -10 -11
-13 -50 -77 -87 -143 -37 -66 -112 -196 -166 -290 -54 -93 -133 -235 -175
-314 -42 -80 -80 -146 -86 -148 -5 -2 -15 44 -22 104 -37 312 -107 470 -240
541 -97 52 -167 65 -342 66 -172 1 -231 -11 -375 -79 -167 -77 -403 -285 -510
-448 -184 -280 -247 -508 -179 -645 31 -63 75 -102 162 -146 157 -79 297 -98
567 -77 159 12 415 73 571 136 48 19 89 33 92 30 3 -3 -53 -92 -125 -198 -72
-105 -176 -264 -233 -352 -57 -87 -121 -182 -142 -209 -58 -74 -91 -142 -79
-165 15 -28 41 -33 68 -15 25 16 152 204 283 419 40 66 110 174 155 240 45 66
113 169 150 228 64 102 107 149 123 133 10 -10 15 -249 7 -303 -5 -38 -25 -67
-134 -196 -173 -207 -281 -347 -311 -401 -23 -42 -23 -47 -8 -62 31 -32 62
-10 155 110 48 62 131 163 183 225 89 105 95 110 98 84 2 -16 -8 -73 -23 -127
-39 -154 -32 -234 22 -224 26 5 61 82 74 168 7 41 14 77 15 79 2 2 10 -2 19
-9 12 -10 21 -10 42 -1 30 13 72 67 221 281 52 74 100 141 108 149 7 8 -5 -31
-26 -88 -47 -120 -49 -145 -15 -167 23 -15 27 -15 50 0 13 9 73 80 131 159 59
78 114 149 122 157 17 17 -33 -77 -88 -165 -21 -33 -41 -70 -44 -81 -7 -23 15
-54 39 -54 20 0 68 44 100 92 40 59 138 189 140 186 1 -2 -6 -64 -16 -138 -49
-357 -32 -548 55 -629 14 -14 26 -28 26 -32 0 -4 -26 -15 -57 -24 -94 -26
-224 -66 -281 -86 -29 -11 -61 -19 -72 -19 -11 0 -34 -6 -52 -14 -18 -8 -73
-29 -123 -46 -89 -32 -168 -63 -316 -124 -87 -37 -346 -167 -464 -235 -332
-189 -606 -411 -506 -411 21 0 109 57 161 104 53 49 327 224 460 294 206 109
455 227 502 237 18 4 56 18 83 30 28 13 97 38 155 55 58 18 137 43 175 55 81
25 91 28 320 88 198 52 433 103 610 131 147 24 435 58 504 60 l65 1 11 -80
c14 -96 36 -142 71 -151 36 -9 51 9 35 43 -8 16 -16 67 -18 114 -5 75 -3 87
12 93 40 15 567 28 965 23 382 -4 446 -7 635 -31 304 -38 455 -69 630 -127 91
-31 114 -43 102 -55 -11 -11 -277 -62 -412 -78 -71 -9 -204 -20 -295 -26 -91
-5 -241 -15 -335 -20 -168 -11 -350 -19 -880 -40 -583 -22 -951 -51 -1666
-130 -512 -57 -640 -68 -627 -54 11 10 132 35 391 79 267 46 476 94 527 120
33 17 42 61 14 72 -9 3 -82 -10 -162 -30 -81 -20 -268 -57 -417 -83 -301 -51
-424 -80 -531 -125 -72 -30 -91 -50 -78 -82 9 -24 29 -28 154 -34 128 -6 325
7 565 38 518 66 1203 126 1755 153 179 9 354 19 390 21 36 3 234 12 440 21
517 23 749 40 925 69 50 9 117 20 150 25 135 21 175 29 204 44 63 33 47 89
-38 135 -157 83 -361 130 -776 176 -66 7 -156 19 -200 26 -86 13 -782 18
-1215 9 l-235 -5 -3 32 c-3 27 45 322 53 331 2 2 17 -6 33 -18 26 -19 34 -20
69 -11 46 13 112 59 216 154 l74 67 48 -26 47 -27 60 17 c83 23 161 64 245
130 72 56 73 57 102 41 37 -19 116 -19 167 -1 22 7 62 16 89 20 106 16 215 98
341 256 l59 75 7 -61 c7 -67 42 -146 80 -181 61 -58 192 -86 272 -59 107 36
154 74 196 157 22 41 26 84 10 94 -20 12 -45 -6 -84 -61 -22 -30 -60 -68 -85
-85 -43 -28 -51 -30 -121 -27 -86 3 -118 21 -166 89 -24 35 -29 52 -28 98 0
66 38 162 102 260 44 67 52 101 28 120 -27 22 -63 -10 -192 -177 -116 -149
-341 -398 -351 -389 -2 2 13 28 33 58 47 70 103 186 110 231 10 60 -35 85 -96
53 -65 -34 -180 -221 -180 -292 0 -49 -52 -103 -107 -110 -60 -8 -66 13 -24
91 216 402 250 490 217 554 -22 42 -48 48 -97 20 -67 -37 -167 -185 -232 -342
-23 -56 -31 -96 -39 -191 -11 -135 -10 -134 -103 -200 -75 -54 -157 -95 -188
-95 -25 0 -47 17 -47 35 0 6 36 68 79 137 122 192 153 259 149 320 -3 57 -20
75 -61 64 -41 -10 -135 -168 -222 -373 -46 -109 -50 -115 -149 -211 -106 -103
-146 -133 -146 -110 0 8 14 49 31 93 31 81 32 118 4 129 -17 6 -65 -13 -65
-26 0 -4 -4 -8 -9 -8 -5 0 -3 17 4 38 14 40 23 75 51 192 33 144 211 661 324
942 44 109 80 209 80 223 0 15 -10 31 -25 41 -23 15 -27 15 -48 1 -27 -18
-176 -221 -232 -317 -107 -184 -148 -256 -209 -371 -36 -69 -66 -133 -66 -141
0 -8 -9 -23 -20 -33 -24 -21 -25 -16 -6 30 29 69 76 252 76 295 0 58 -39 141
-78 169 -17 12 -61 36 -99 54 -67 31 -71 32 -208 32 l-140 0 -85 -45 c-65 -34
-104 -64 -167 -128 l-82 -84 -26 39 c-14 21 -77 117 -140 213 -145 223 -176
265 -331 435 -134 147 -231 271 -267 339 -29 56 -28 133 3 176 25 35 89 69
130 70 30 0 70 26 70 45 0 43 -55 54 -143 31z m-993 -1068 c60 -18 78 -29 136
-87 52 -52 72 -81 93 -134 34 -86 56 -224 64 -408 l6 -145 -44 -85 c-75 -145
-106 -167 -319 -233 -299 -92 -494 -130 -670 -129 -197 0 -323 40 -428 137
-62 59 -75 101 -62 197 16 114 111 316 206 439 47 61 257 269 319 316 103 78
251 142 355 154 100 12 266 1 344 -22z m2895 -60 c-30 -72 -99 -266 -109 -303
-4 -16 -29 -91 -54 -165 -57 -164 -144 -462 -185 -633 -39 -162 -45 -174 -129
-284 -71 -91 -72 -92 -113 -90 -29 1 -44 -3 -52 -14 -15 -24 9 -77 44 -95 26
-13 32 -13 61 2 17 9 44 30 60 47 27 30 28 30 28 9 0 -38 -31 -228 -40 -242
-5 -7 -71 -19 -176 -31 -93 -10 -209 -26 -259 -34 -49 -8 -128 -20 -175 -26
-47 -7 -103 -18 -125 -25 l-40 -14 42 35 c47 40 122 147 155 222 12 26 32 89
44 138 21 81 24 112 24 320 0 202 -18 458 -35 485 -2 4 -11 42 -20 85 -17 79
-27 110 -72 222 -16 39 -23 71 -19 87 8 34 177 200 229 225 62 30 150 44 243
38 99 -6 156 -29 208 -87 38 -42 38 -44 33 -100 -12 -109 -116 -480 -183 -653
-20 -51 -92 -207 -160 -349 -68 -141 -124 -265 -124 -276 0 -28 25 -45 55 -38
28 7 96 134 237 446 82 180 345 704 390 775 13 22 45 76 71 121 54 95 155 254
162 254 3 0 -5 -24 -16 -52z m-2105 -30 c-13 -35 -31 -75 -39 -89 -12 -22
-115 -292 -201 -526 -15 -40 -131 -163 -154 -163 -6 0 -10 11 -10 24 0 27 197
429 277 566 27 47 67 117 88 155 62 114 75 125 39 33z m940 -481 c65 -204 86
-370 86 -664 0 -332 -34 -445 -176 -588 -87 -88 -155 -124 -256 -135 -82 -9
-91 -5 -131 59 -20 33 -22 48 -22 195 l0 159 55 12 c83 17 138 50 216 131 80
82 144 171 170 239 15 41 15 48 2 61 -23 23 -41 9 -98 -74 -61 -89 -198 -228
-251 -256 -55 -29 -73 -17 -65 42 10 71 52 212 96 323 66 165 235 493 299 577
22 30 26 32 37 17 7 -9 24 -53 38 -98z m1899 16 c-46 -110 -175 -343 -180
-326 -7 19 35 129 73 195 86 148 144 219 107 131z m-3143 -371 c0 -5 -13 -49
-29 -98 -23 -69 -51 -185 -51 -211 0 -2 -5 -3 -11 -3 -9 0 -10 35 -6 127 l5
126 39 33 c39 34 53 41 53 26z m93 -309 c-42 -87 -101 -213 -132 -280 -31 -67
-57 -120 -58 -119 -4 4 24 168 37 216 6 25 35 79 63 120 65 97 156 220 162
220 2 0 -30 -71 -72 -157z"/>
<path d="M5026 3909 c-14 -11 -38 -40 -52 -65 -21 -36 -24 -47 -14 -59 21 -25
49 -17 89 27 37 39 40 41 77 33 22 -4 64 -9 94 -9 49 -1 55 1 58 21 4 25 -14
37 -86 59 -69 21 -134 18 -166 -7z"/>
</g>
</svg>
